<?xml version="1.0" encoding="UTF-8"?>
<svg version="1.1" xmlns="http://www.w3.org/2000/svg" width="3038" height="1900">
<path d="M0 0 C1002.54 0 2005.08 0 3038 0 C3038 627 3038 1254 3038 1900 C2035.46 1900 1032.92 1900 0 1900 C0 1273 0 646 0 0 Z " fill="#FBFCFD" transform="translate(0,0)"/>
<path d="M0 0 C69.11605593 -0.03431028 138.23211289 -0.06610491 207.34817505 -0.08468628 C208.37258951 -0.08496239 209.39700398 -0.08523851 210.45246131 -0.08552299 C232.72058614 -0.09151006 254.98871106 -0.09705025 277.25683611 -0.10213066 C288.17854831 -0.10462514 299.10026049 -0.10721827 310.02197266 -0.10986328 C311.10876201 -0.1101248 312.19555137 -0.11038632 313.31527374 -0.11065576 C348.48394556 -0.1191647 383.65261092 -0.13417701 418.82127883 -0.15259444 C454.98893333 -0.17150044 491.15658426 -0.18378033 527.32424362 -0.18782998 C532.44326534 -0.18840621 537.56228704 -0.18905748 542.68130875 -0.18975449 C543.68871621 -0.18988933 544.69612368 -0.19002418 545.73405865 -0.19016311 C561.89156822 -0.19251824 578.04906669 -0.2017718 594.20657174 -0.21366407 C610.48601701 -0.22549672 626.76545136 -0.2299215 643.04490076 -0.22700275 C652.69364489 -0.22549203 662.34234881 -0.22944263 671.99108561 -0.24159509 C678.46606176 -0.24918621 684.94101208 -0.24926441 691.41599014 -0.24366363 C695.08633786 -0.24069123 698.75661047 -0.24057308 702.42694961 -0.24976636 C729.79882102 -0.31423778 757.2138371 0.66422484 784.375 4.25 C785.19734131 4.35504852 786.01968262 4.46009705 786.86694336 4.56832886 C802.12447317 6.52804672 817.04744332 9.36113792 832 13 C832.83934082 13.20012695 833.67868164 13.40025391 834.54345703 13.60644531 C839.04462517 14.68115449 843.52619204 15.81559837 848 17 C848.93714844 17.24234375 849.87429688 17.4846875 850.83984375 17.734375 C858.30279543 19.70696135 865.66059014 22.01681604 873.01074219 24.36914062 C874.81792466 24.94225789 876.63132197 25.49568513 878.4453125 26.046875 C929.04875113 41.95410628 977.34055489 70.94005193 1016.41796875 106.6640625 C1017.84286287 107.95314976 1019.27413712 109.23567055 1020.73120117 110.48828125 C1026.37363903 115.34101818 1031.67837259 120.48639207 1036.9375 125.75 C1037.8234082 126.63598877 1038.70931641 127.52197754 1039.62207031 128.43481445 C1044.79785537 133.65607672 1049.69561541 138.89892103 1054.20703125 144.70703125 C1056.02417331 147.03091445 1057.94791151 149.19778824 1059.9375 151.375 C1099.06083028 195.05114386 1126.29248747 252.01884843 1142 308 C1142.27682617 308.9782373 1142.55365234 309.95647461 1142.83886719 310.96435547 C1147.60631728 328.08174414 1150.47307835 345.4341921 1153 363 C1153.18111328 364.25796387 1153.36222656 365.51592773 1153.54882812 366.81201172 C1155.24534792 379.021007 1156.15217074 391.13291929 1156.203125 403.46484375 C1156.21357849 405.18085533 1156.21357849 405.18085533 1156.22424316 406.93153381 C1156.24152669 410.60022714 1156.24796221 414.26876766 1156.25 417.9375 C1156.25100708 419.19054932 1156.25201416 420.44359863 1156.25305176 421.73461914 C1156.24292001 440.35676338 1155.74303092 458.55548175 1153 477 C1152.86078125 478.00546875 1152.7215625 479.0109375 1152.578125 480.046875 C1139.30971922 574.89140517 1090.29056322 678.38629843 1012.6171875 737.91796875 C1010.24971877 739.80134312 1008.02215669 741.76285106 1005.77734375 743.7890625 C1001.25186181 747.83447012 996.55070254 751.55831737 991.6875 755.1875 C990.39598022 756.15187988 990.39598022 756.15187988 989.07836914 757.13574219 C974.08897984 768.20792983 958.28040196 777.95422856 942 787 C941.2167334 787.44021484 940.4334668 787.88042969 939.62646484 788.33398438 C891.22171752 815.36251661 836.3241663 830.36000929 781.5625 837.25 C780.38905029 837.40114258 779.21560059 837.55228516 778.0065918 837.70800781 C745.13019581 841.56225682 712.11046196 841.2885477 679.06581229 841.24709832 C671.62179786 841.23820087 664.17779854 841.24136874 656.73378125 841.24469952 C642.82942863 841.25058991 628.92509292 841.24713582 615.02074242 841.23841095 C600.95213884 841.22962217 586.883544 841.22526953 572.81493759 841.22621536 C571.92286718 841.22627275 571.03079677 841.22633013 570.11169393 841.22638925 C565.5621813 841.22670205 561.01266869 841.22708594 556.46315607 841.22749493 C523.62198895 841.23030224 490.78082959 841.22347503 457.93966484 841.21146011 C425.4368225 841.19959749 392.93398348 841.1919064 360.43113899 841.18975449 C358.91455608 841.18965125 358.91455608 841.18965125 357.36733512 841.18954593 C348.13230609 841.18891949 338.89727704 841.18834412 329.662248 841.18782998 C306.70951193 841.18655152 283.75677594 841.18463309 260.80403996 841.18227959 C259.23656827 841.18211963 259.23656827 841.18211963 257.63743049 841.18195645 C206.8596041 841.17671897 156.08177991 841.16410614 105.30395508 841.15087891 C87.69262697 841.1462954 70.08129885 841.14174459 52.4699707 841.1373291 C51.37764883 841.1370552 50.28532696 841.1367813 49.15990443 841.13649911 C-1.66145509 841.12380055 -52.482815 841.11635641 -103.30417569 841.11025951 C-106.60533098 841.10986339 -109.90648626 841.109465 -113.20764155 841.10906615 C-135.08538137 841.10642649 -156.96312121 841.10387721 -178.84086106 841.10138843 C-222.36859118 841.096436 -265.89632123 841.09095266 -309.42405124 841.08510434 C-311.49674837 841.08482586 -313.56944549 841.08454775 -315.64214261 841.08427001 C-408.89757858 841.07177093 -502.15301294 841.05309724 -595.40844727 841.03173828 C-596.2812762 841.03153841 -597.15410512 841.03133854 -598.05338342 841.03113261 C-641.7022557 841.0211326 -685.3511279 841.01077972 -729 841 C-729 840.67 -729 840.34 -729 840 C-488.43 840 -247.86 840 0 840 C-0.33 802.38 -0.66 764.76 -1 726 C-1.13167672 682.11231513 -1.13167672 682.11231513 -1.10414124 660.83097267 C-1.0962635 654.26040477 -1.09113748 647.68984033 -1.08811951 641.11926842 C-1.07465719 612.41282256 -1.04060519 583.70641922 -1 555 C-0.99826121 553.76575857 -0.99652243 552.53151715 -0.99473095 551.25987446 C-0.88661422 474.68221282 -0.75021539 398.10460218 -0.55915749 297.86925065 C-0.51443946 274.48892563 -0.47053963 251.10859918 -0.42724609 227.72827148 C-0.42575204 226.92156143 -0.42425798 226.11485137 -0.42271865 225.28369556 C-0.40770295 217.1756236 -0.39270077 209.06755162 -0.37770845 200.95947962 C-0.34722072 184.47141461 -0.31664325 167.98334977 -0.28601074 151.49528503 C-0.28460525 150.73871526 -0.28319976 149.9821455 -0.28175168 149.20264937 C-0.18934961 99.46843006 -0.09485591 49.73421469 0 0 Z " fill="#4D88B8" transform="translate(1515,553)"/>
<path d="M0 0 C3.7278361 0.00347965 7.45566956 0.00105148 11.18350629 -0.00058276 C17.70279734 -0.00264694 24.22207919 -0.0010367 30.74136917 0.00305062 C40.56097745 0.00918673 50.38058024 0.00941756 60.2001901 0.00858532 C76.66112735 0.00734694 93.12206059 0.01062125 109.58299664 0.01669019 C131.84038844 0.02488165 154.09777339 0.02679437 176.35516766 0.02766126 C229.85081464 0.03290783 283.34646047 0.04686899 336.84210614 0.05976575 C516.12491864 0.09070325 516.12491864 0.09070325 699.02960614 0.12226575 C699.02960614 277.32226575 699.02960614 554.52226575 699.02960614 840.12226575 C576.08398114 840.18414075 453.13835614 840.24601575 326.46710614 840.30976575 C287.64626386 840.33707776 248.82542157 840.36438977 208.82819013 840.39252942 C161.42425946 840.40607923 161.42425946 840.40607923 139.23262433 840.40859693 C122.71393676 840.4115757 106.19528623 840.42449239 89.67660904 840.44228603 C72.80713492 840.46021061 55.93768401 840.46676061 39.06820075 840.4626006 C29.05627158 840.46045927 19.04442923 840.46630578 9.03251625 840.48468853 C2.39773407 840.49603628 -4.23699122 840.4962077 -10.87177749 840.48777177 C-14.63526541 840.48329133 -18.39858815 840.48319353 -22.16205748 840.49691349 C-47.39158911 840.58348799 -72.2988227 838.88862797 -97.22039386 834.80976575 C-98.51614337 834.60319348 -99.81189288 834.39662122 -101.14690753 834.18378919 C-129.74873554 829.52948519 -129.74873554 829.52948519 -142.97039386 825.12226575 C-143.30039386 825.78226575 -143.63039386 826.44226575 -143.97039386 827.12226575 C-144.30039386 826.46226575 -144.63039386 825.80226575 -144.97039386 825.12226575 C-147.42593145 824.15057426 -147.42593145 824.15057426 -150.46258136 823.30976575 C-152.21212115 822.78793714 -152.21212115 822.78793714 -153.99700519 822.25556653 C-154.62329822 822.071573 -155.24959125 821.88757947 -155.89486285 821.69801038 C-210.53936507 805.56841359 -261.24449728 779.78429919 -304.97039386 743.12226575 C-305.81851642 742.41167005 -305.81851642 742.41167005 -306.68377277 741.68671887 C-313.09176139 736.30255325 -319.37966379 730.90879767 -325.20476886 724.88789075 C-326.92881637 723.16384324 -328.72183891 721.61843751 -330.59539386 720.05976575 C-358.44223454 696.03504045 -381.038211 662.90613092 -398.97039386 631.12226575 C-399.48569659 630.2091261 -400.00099933 629.29598645 -400.5319173 628.3551759 C-431.24152428 573.51408939 -449.80698417 512.45974244 -453.80730792 449.67500012 C-453.95792662 447.31741156 -454.12876191 444.96232544 -454.30633136 442.60664075 C-457.09115802 403.94090937 -452.99374146 365.02210898 -444.66521808 327.2770509 C-444.08636993 324.64884439 -443.52561573 322.01804804 -442.97430011 319.3839845 C-440.24457029 306.69691056 -436.11673518 294.40532085 -431.97039386 282.12226575 C-431.54717853 280.86542981 -431.54717853 280.86542981 -431.11541339 279.58320325 C-420.57441488 248.70253156 -405.62874543 219.49483967 -387.97039386 192.12226575 C-387.57867999 191.51318372 -387.18696612 190.90410169 -386.78338214 190.27656262 C-384.56954471 186.85118761 -382.2906226 183.47630609 -379.97039386 180.12226575 C-379.22789386 179.04332044 -378.48539386 177.96437512 -377.72039386 176.8527345 C-371.73713188 168.26138396 -365.28775633 160.09613929 -358.58221027 152.05878919 C-357.56812262 150.84040942 -356.55920173 149.61769194 -355.5577962 148.38886731 C-347.73274555 138.78705993 -339.07515774 130.01765173 -330.34539386 121.24726575 C-329.76843768 120.66504254 -329.19148151 120.08281934 -328.59704181 119.482953 C-321.37530734 112.21031791 -314.00537458 105.49666173 -305.97039386 99.12226575 C-304.82188958 98.15213456 -303.67886099 97.17543297 -302.54461261 96.188672 C-295.01353156 89.65629994 -287.19291424 83.75488388 -278.97039386 78.12226575 C-277.94945636 77.42230481 -276.92851886 76.72234387 -275.87664386 76.001172 C-264.26253209 68.16164656 -252.28818572 61.00281693 -240.01775714 54.25019544 C-238.68841437 53.51783631 -237.36113247 52.78171924 -236.03631183 52.04121106 C-182.90627923 22.40552561 -123.21981131 8.53415488 -63.15789386 2.37226575 C-62.03471759 2.25665296 -60.91154132 2.14104016 -59.75432941 2.02192395 C-39.86698327 0.12218979 -19.96272008 -0.02471132 0 0 Z " fill="#D0D6E3" transform="translate(815.97039385885,552.8777342513204)"/>
<path d="M0 0 C0.99 0 1.98 0 3 0 C3 276.87 3 553.74 3 839 C2.01 839 1.02 839 0 839 C-0.71957475 778.77870858 -1.0891437 718.56183524 -1.06438637 658.33664346 C-1.06230123 653.10112977 -1.06143367 647.86561618 -1.06065369 642.63010216 C-1.04650052 557.93379973 -0.8865749 473.23758805 -0.55915694 297.31014551 C-0.51443833 273.97377351 -0.4705384 250.63740008 -0.42724609 227.30102539 C-0.42575204 226.49580939 -0.42425798 225.69059339 -0.42271865 224.86097691 C-0.40770292 216.76790835 -0.39270075 208.67483977 -0.37770845 200.58177117 C-0.34722086 184.12427206 -0.31664338 167.66677313 -0.28601074 151.20927429 C-0.28460525 150.45411001 -0.28319976 149.69894573 -0.28175168 148.92089768 C-0.18935243 99.28059559 -0.09485771 49.64029745 0 0 Z " fill="#2A2D8B" transform="translate(1515,554)"/>
<path d="M0 0 C0.33 0 0.66 0 1 0 C1.25785496 31.01389231 1.51292396 62.02780611 1.76436454 93.04175103 C1.79438738 96.74463105 1.82443279 100.4475109 1.85449219 104.15039062 C1.86047342 104.88723768 1.86645465 105.62408473 1.87261713 106.38326049 C1.96816787 118.1479138 2.06552544 129.91255145 2.16361082 141.67718387 C2.26501892 153.84545076 2.36434663 166.0137335 2.46193409 178.18203163 C2.51647508 184.97600111 2.57188941 191.76996035 2.62960815 198.56390381 C2.96134088 237.710473 3.05714836 276.85235317 3 316 C2.01 316 1.02 316 0 316 C-0.78100776 250.63737263 -1.1111031 185.2798197 -1.12283063 119.91288203 C-1.12411057 113.25257807 -1.12785302 106.59227864 -1.13256836 99.93197632 C-1.13877587 90.81420813 -1.13862208 81.69645473 -1.13431931 72.57868576 C-1.13286962 69.2105913 -1.133504 65.84250848 -1.13615799 62.47441483 C-1.15067742 41.62857507 -0.82388342 20.83064728 0 0 Z " fill="#47498F" transform="translate(1515,1077)"/>
<path d="M0 0 C0.33 0 0.66 0 1 0 C1.17403227 13.16657619 1.34024506 26.33324277 1.5 39.5 C1.51187725 40.47853565 1.5237545 41.4570713 1.53599167 42.46525955 C1.86558755 69.78978821 2.09661565 97.11086218 2.0625 124.4375 C2.06164398 125.12832672 2.06078796 125.81915344 2.05990601 126.53091431 C2.04900543 134.68730378 2.02976004 142.84365672 2 151 C1.01 151 0.02 151 -1 151 C-1.02333491 131.60735661 -1.0409821 112.21471605 -1.05181217 92.82206154 C-1.05697387 83.81821855 -1.06401417 74.81438427 -1.07543945 65.81054688 C-1.08539014 57.9650603 -1.09185435 50.11958002 -1.09408849 42.27408731 C-1.09539494 38.11793447 -1.09847667 33.96179968 -1.10573006 29.80565262 C-1.11249633 25.89710514 -1.11461571 21.98858322 -1.11310768 18.08003044 C-1.11338373 16.642468 -1.11538527 15.20490473 -1.11920547 13.76734734 C-1.1241521 11.81061286 -1.12239534 9.8538648 -1.12025452 7.89712524 C-1.12117631 6.80019159 -1.1220981 5.70325794 -1.12304783 4.57308388 C-1 2 -1 2 0 0 Z " fill="#1C1869" transform="translate(1516,1242)"/>
</svg>
